<svg width="651" height="130" viewBox="0 0 651 130" fill="none" xmlns="http://www.w3.org/2000/svg">
<path d="M69.8906 81.8594C69.8906 83.3594 70.3125 84.3594 71.1562 84.8594C72.0312 85.3594 73.0156 85.6094 74.1094 85.6094H76.5938V103H48.75V90.1562H48C47.2812 94.9375 45.3281 98.5625 42.1406 101.031C38.9531 103.5 34.3125 104.734 28.2188 104.734C23.9375 104.734 20.4531 104.125 17.7656 102.906C15.0781 101.688 13 100.156 11.5312 98.3125C10.0625 96.4375 9.04688 94.4219 8.48438 92.2656C7.95312 90.0781 7.6875 88.0312 7.6875 86.125V73.3281C7.6875 71.6719 7.39062 70.5 6.79688 69.8125C6.23438 69.0938 5.125 68.7344 3.46875 68.7344H0.65625V51.3438H33.4219V80.9219C33.4219 82.1406 33.5625 83.125 33.8438 83.875C34.125 84.5938 34.4844 85.1562 34.9219 85.5625C35.3906 85.9375 35.9062 86.1875 36.4688 86.3125C37.0625 86.4375 37.6094 86.5 38.1094 86.5C40.1719 86.5 41.6875 85.9062 42.6562 84.7188C43.6562 83.5312 44.1562 81.8438 44.1562 79.6562V73.3281C44.1562 71.6719 43.8594 70.5 43.2656 69.8125C42.7031 69.0938 41.5938 68.7344 39.9375 68.7344H37.1719V51.3438H69.8906V81.8594Z" fill="#101010"/>
<path d="M115.125 33.9531V80.5469C115.125 82.6406 115.641 84.0156 116.672 84.6719C117.703 85.2969 119.016 85.6094 120.609 85.6094H121.875V103H82.4062V85.6094H84.2344C85.8906 85.6094 87.1094 85.0938 87.8906 84.0625C88.7031 83 89.1094 81.8594 89.1094 80.6406V56.6406C89.1094 54.8281 88.5312 53.5 87.375 52.6562C86.25 51.7812 84.9375 51.3438 83.4375 51.3438H82.4062V33.9531H115.125Z" fill="#101010"/>
<path d="M149.766 57.8594C148.172 57.8594 146.797 57.9844 145.641 58.2344C144.516 58.4531 143.547 58.7188 142.734 59.0312C141.922 59.3438 141.25 59.7031 140.719 60.1094C140.188 60.4844 139.719 60.8281 139.312 61.1406L139.781 61.6094C140.375 61.2969 141.016 60.9844 141.703 60.6719C142.422 60.3594 143.328 60.2031 144.422 60.2031C146.266 60.2031 147.859 60.8125 149.203 62.0312C150.547 63.2188 151.219 65.125 151.219 67.75C151.219 70.25 150.188 72.2656 148.125 73.7969C146.094 75.2969 143.359 76.0469 139.922 76.0469C136.641 76.0469 134.016 75.1094 132.047 73.2344C130.109 71.3281 129.141 68.6406 129.141 65.1719C129.141 63.2656 129.672 61.375 130.734 59.5C131.797 57.5938 133.438 55.8906 135.656 54.3906C137.906 52.8906 140.75 51.6562 144.188 50.6875C147.656 49.7188 151.828 49.2344 156.703 49.2344C162.516 49.2344 167.266 49.7812 170.953 50.875C174.641 51.9688 177.5 53.375 179.531 55.0938C181.594 56.8125 183 58.7656 183.75 60.9531C184.531 63.1406 184.922 65.3438 184.922 67.5625V85.8906C184.922 88.7344 185.016 90.6719 185.203 91.7031C185.391 92.7031 186.094 93.2031 187.312 93.2031C188.281 93.2031 188.953 92.75 189.328 91.8438C189.734 90.9062 189.938 89.3125 189.938 87.0625V81.2031H195.281V87.1562C195.281 89.9688 195.047 92.4688 194.578 94.6562C194.109 96.8125 193.219 98.6719 191.906 100.234C190.594 101.766 188.812 102.922 186.562 103.703C184.312 104.516 181.438 104.922 177.938 104.922C174.781 104.922 172.156 104.578 170.062 103.891C168 103.234 166.359 102.406 165.141 101.406C163.922 100.406 163.047 99.375 162.516 98.3125C162.016 97.2188 161.766 96.25 161.766 95.4062H161.016C160.828 96.6875 160.281 97.9062 159.375 99.0625C158.5 100.219 157.266 101.25 155.672 102.156C154.109 103.031 152.219 103.734 150 104.266C147.812 104.828 145.312 105.109 142.5 105.109C139.812 105.109 137.359 104.844 135.141 104.312C132.953 103.812 131.078 103.016 129.516 101.922C127.984 100.797 126.781 99.3594 125.906 97.6094C125.062 95.8281 124.641 93.7188 124.641 91.2812C124.641 88.2812 125.484 85.9219 127.172 84.2031C128.859 82.4531 130.984 81.0781 133.547 80.0781C136.109 79.0469 138.891 78.2188 141.891 77.5938C144.922 76.9375 147.719 76.1562 150.281 75.25C152.844 74.3438 154.969 73.1719 156.656 71.7344C158.344 70.2969 159.188 68.2656 159.188 65.6406C159.188 63.2969 158.453 61.4219 156.984 60.0156C155.516 58.5781 153.109 57.8594 149.766 57.8594ZM159.188 78.1562C158.5 79.1562 157.641 79.9688 156.609 80.5938C155.578 81.1875 154.578 81.7812 153.609 82.375C152.672 82.9375 151.844 83.625 151.125 84.4375C150.438 85.2188 150.094 86.2812 150.094 87.625C150.094 88.6562 150.375 89.5938 150.938 90.4375C151.5 91.25 152.594 91.6562 154.219 91.6562C155.688 91.6562 156.875 91.0938 157.781 89.9688C158.719 88.8125 159.188 87.2031 159.188 85.1406V78.1562Z" fill="#101010"/>
<path d="M266.344 81.0156C266.344 82.6719 266.625 83.8594 267.188 84.5781C267.781 85.2656 268.906 85.6094 270.562 85.6094H272.109V103H240.609V73.0469C240.609 71.8281 240.484 70.8594 240.234 70.1406C239.984 69.3906 239.641 68.8281 239.203 68.4531C238.797 68.0469 238.312 67.7812 237.75 67.6562C237.219 67.5312 236.703 67.4688 236.203 67.4688C234.141 67.4688 232.719 68.0625 231.938 69.25C231.188 70.4375 230.812 72.125 230.812 74.3125V81.0156C230.812 82.6719 231.094 83.8594 231.656 84.5781C232.25 85.2656 233.375 85.6094 235.031 85.6094H236.578V103H198.375V85.6094H201.141C202.422 85.6094 203.391 85.2031 204.047 84.3906C204.734 83.5469 205.078 82.5469 205.078 81.3906V72.4844C205.078 71.0156 204.641 70.0312 203.766 69.5312C202.922 69 201.953 68.7344 200.859 68.7344H198.375V51.3438H226.219L225.234 64.2344H226.031C226.719 59.4219 228.656 55.7188 231.844 53.125C235.062 50.5312 239.719 49.2344 245.812 49.2344C248.094 49.2344 250.219 49.5469 252.188 50.1719C254.188 50.7656 255.953 51.6875 257.484 52.9375C259.047 54.1875 260.266 55.7656 261.141 57.6719C262.047 59.5469 262.562 61.7344 262.688 64.2344H263.344C263.625 61.8594 264.312 59.7344 265.406 57.8594C266.531 55.9531 267.938 54.375 269.625 53.125C271.344 51.875 273.219 50.9219 275.25 50.2656C277.312 49.5781 279.469 49.2344 281.719 49.2344C285.875 49.2344 289.266 49.8438 291.891 51.0625C294.516 52.2812 296.562 53.8281 298.031 55.7031C299.5 57.5469 300.5 59.5625 301.031 61.75C301.594 63.9062 301.875 65.9375 301.875 67.8438V81.0156C301.875 82.6719 302.156 83.8594 302.719 84.5781C303.312 85.2656 304.438 85.6094 306.094 85.6094H308.578V103H276.141V73.0469C276.141 71.8281 276 70.8594 275.719 70.1406C275.469 69.3906 275.141 68.8281 274.734 68.4531C274.328 68.0469 273.844 67.7812 273.281 67.6562C272.75 67.5312 272.234 67.4688 271.734 67.4688C269.672 67.4688 268.25 68.0625 267.469 69.25C266.719 70.4375 266.344 72.125 266.344 74.3125V81.0156Z" fill="#101010"/>
<path d="M361.125 104.547C359.125 104.547 357.344 104.438 355.781 104.219C354.219 104.031 352.797 103.75 351.516 103.375C350.234 103 349.016 102.562 347.859 102.062C346.703 101.531 345.547 100.984 344.391 100.422V105.016C344.391 106.672 344.672 107.844 345.234 108.531C345.828 109.25 346.969 109.609 348.656 109.609H351.422V127H311.953V109.609H314.766C316.047 109.609 317.016 109.188 317.672 108.344C318.359 107.531 318.703 106.547 318.703 105.391V72.4844C318.703 71.0156 318.266 70.0312 317.391 69.5312C316.516 69 315.531 68.7344 314.438 68.7344H311.953V51.3438H342.375V60.9531H343.172C344.328 57.7031 346.375 55.0156 349.312 52.8906C352.25 50.7656 356.281 49.7031 361.406 49.7031C368.75 49.7031 374.484 52.0312 378.609 56.6875C382.766 61.3125 384.844 68.1094 384.844 77.0781C384.844 86.0469 382.719 92.875 378.469 97.5625C374.25 102.219 368.469 104.547 361.125 104.547ZM358.125 77.5469C358.125 75.8906 358.031 74.3125 357.844 72.8125C357.656 71.3125 357.297 70 356.766 68.875C356.266 67.75 355.578 66.875 354.703 66.25C353.859 65.5938 352.734 65.2656 351.328 65.2656C349.922 65.2656 348.766 65.5781 347.859 66.2031C346.953 66.7969 346.25 67.625 345.75 68.6875C345.25 69.75 344.891 71.0156 344.672 72.4844C344.484 73.9531 344.391 75.5156 344.391 77.1719V88.7031C344.922 89.5156 345.906 90.1719 347.344 90.6719C348.781 91.1406 350.109 91.375 351.328 91.375C352.734 91.375 353.859 90.9844 354.703 90.2031C355.578 89.3906 356.266 88.3281 356.766 87.0156C357.297 85.7031 357.656 84.2188 357.844 82.5625C358.031 80.9062 358.125 79.2344 358.125 77.5469Z" fill="#101010"/>
<path d="M423.375 51.3438V80.5469C423.375 82.6406 423.891 84.0156 424.922 84.6719C425.953 85.2969 427.266 85.6094 428.859 85.6094H430.125V103H390.656V85.6094H392.484C394.141 85.6094 395.359 85.0938 396.141 84.0625C396.953 83 397.359 81.8594 397.359 80.6406V74.0312C397.359 72.2188 396.781 70.8906 395.625 70.0469C394.5 69.1719 393.188 68.7344 391.688 68.7344H390.656V51.3438H423.375ZM396.609 39.8125C396.609 37.125 397.625 34.8281 399.656 32.9219C401.719 31.0156 404.641 30.0625 408.422 30.0625C412.266 30.0625 415.219 31.0156 417.281 32.9219C419.375 34.8281 420.422 37.125 420.422 39.8125C420.422 42.5625 419.375 44.8906 417.281 46.7969C415.219 48.6719 412.266 49.6094 408.422 49.6094C404.641 49.6094 401.719 48.6719 399.656 46.7969C397.625 44.8906 396.609 42.5625 396.609 39.8125Z" fill="#101010"/>
<path d="M478.125 73.0469C478.125 71.8281 477.969 70.8594 477.656 70.1406C477.375 69.3906 477 68.8281 476.531 68.4531C476.094 68.0469 475.594 67.7812 475.031 67.6562C474.469 67.5312 473.922 67.4688 473.391 67.4688C471.359 67.4688 469.844 68.0625 468.844 69.25C467.844 70.4375 467.344 72.125 467.344 74.3125V81.0156C467.344 82.6719 467.625 83.8594 468.188 84.5781C468.781 85.2656 469.906 85.6094 471.562 85.6094H474.094V103H434.906V85.6094H437.672C438.953 85.6094 439.922 85.2031 440.578 84.3906C441.266 83.5469 441.609 82.5469 441.609 81.3906V72.4844C441.609 71.0156 441.172 70.0312 440.297 69.5312C439.453 69 438.484 68.7344 437.391 68.7344H434.906V51.3438H462.75L461.766 64.2344H462.562C463.25 59.4219 465.359 55.7188 468.891 53.125C472.422 50.5312 477.219 49.2344 483.281 49.2344C487.562 49.2344 491.047 49.8438 493.734 51.0625C496.422 52.2812 498.5 53.8281 499.969 55.7031C501.469 57.5469 502.484 59.5625 503.016 61.75C503.547 63.9062 503.812 65.9375 503.812 67.8438V81.0156C503.812 82.6719 504.094 83.8594 504.656 84.5781C505.25 85.2656 506.375 85.6094 508.031 85.6094H510.562V103H478.125V73.0469Z" fill="#101010"/>
<path d="M513.422 77.0781C513.422 72.4844 514.219 68.4531 515.812 64.9844C517.406 61.5156 519.672 58.625 522.609 56.3125C525.578 53.9688 529.141 52.2031 533.297 51.0156C537.453 49.8281 542.094 49.2344 547.219 49.2344C552.344 49.2344 556.984 49.8281 561.141 51.0156C565.297 52.2031 568.844 53.9688 571.781 56.3125C574.719 58.625 576.984 61.5156 578.578 64.9844C580.203 68.4531 581.016 72.4844 581.016 77.0781C581.016 81.6094 580.203 85.625 578.578 89.125C576.984 92.625 574.719 95.5625 571.781 97.9375C568.844 100.281 565.297 102.047 561.141 103.234C556.984 104.422 552.344 105.016 547.219 105.016C542.094 105.016 537.453 104.422 533.297 103.234C529.141 102.047 525.578 100.281 522.609 97.9375C519.672 95.5625 517.406 92.625 515.812 89.125C514.219 85.625 513.422 81.6094 513.422 77.0781ZM540.094 77.0781C540.094 79.7031 540.203 81.9375 540.422 83.7812C540.672 85.5938 541.062 87.0625 541.594 88.1875C542.125 89.2812 542.844 90.0938 543.75 90.625C544.656 91.125 545.812 91.375 547.219 91.375C548.625 91.375 549.766 91.125 550.641 90.625C551.547 90.0938 552.266 89.2812 552.797 88.1875C553.359 87.0625 553.75 85.5938 553.969 83.7812C554.188 81.9375 554.297 79.7031 554.297 77.0781C554.297 71.8281 553.797 68.1562 552.797 66.0625C551.828 63.9375 549.969 62.875 547.219 62.875C545.812 62.875 544.656 63.125 543.75 63.625C542.844 64.0938 542.125 64.8906 541.594 66.0156C541.062 67.1094 540.672 68.5781 540.422 70.4219C540.203 72.2344 540.094 74.4531 540.094 77.0781Z" fill="#101010"/>
<path d="M627.562 106.844C626.5 109.156 625.406 111.625 624.281 114.25C623.156 116.875 621.672 119.297 619.828 121.516C618.016 123.766 615.672 125.625 612.797 127.094C609.922 128.562 606.172 129.297 601.547 129.297C598.297 129.297 595.453 128.875 593.016 128.031C590.578 127.219 588.562 126.109 586.969 124.703C585.375 123.297 584.188 121.672 583.406 119.828C582.656 118.016 582.281 116.156 582.281 114.25C582.281 110.469 583.438 107.484 585.75 105.297C588.094 103.141 591 102.062 594.469 102.062C596.5 102.062 598.203 102.359 599.578 102.953C600.953 103.547 602.078 104.312 602.953 105.25C603.828 106.188 604.438 107.219 604.781 108.344C605.125 109.469 605.297 110.531 605.297 111.531C605.297 113.781 604.734 115.5 603.609 116.688C602.516 117.875 601.188 118.625 599.625 118.938C599.75 119.062 599.953 119.156 600.234 119.219C600.609 119.406 601.375 119.5 602.531 119.5C603.625 119.5 604.594 119.219 605.438 118.656C606.312 118.125 607.094 117.453 607.781 116.641C608.5 115.859 609.109 115 609.609 114.062C610.141 113.156 610.562 112.312 610.875 111.531L610.969 111.25L591 72.7656C590.688 72.0469 590.344 71.4375 589.969 70.9375C589.625 70.4375 589.188 70.0312 588.656 69.7188C588.156 69.375 587.516 69.125 586.734 68.9688C585.984 68.8125 585.031 68.7344 583.875 68.7344V51.3438H621.516V68.7344C619.547 68.7344 618.25 69.0312 617.625 69.625C617.031 70.1875 616.984 71.0781 617.484 72.2969L623.156 84.3906L628.641 72.2969C629.141 71.2031 629.078 70.3438 628.453 69.7188C627.859 69.0625 626.578 68.7344 624.609 68.7344V51.3438H650.719V68.7344C648.406 68.7344 646.781 69.0625 645.844 69.7188C644.938 70.3438 644.156 71.3594 643.5 72.7656L627.562 106.844Z" fill="#101010"/>
<path d="M511.773 12.4297C510.977 12.4297 510.289 12.4922 509.711 12.6172C509.148 12.7266 508.664 12.8594 508.258 13.0156C507.852 13.1719 507.516 13.3516 507.25 13.5547C506.984 13.7422 506.75 13.9141 506.547 14.0703L506.781 14.3047C507.078 14.1484 507.398 13.9922 507.742 13.8359C508.102 13.6797 508.555 13.6016 509.102 13.6016C510.023 13.6016 510.82 13.9062 511.492 14.5156C512.164 15.1094 512.5 16.0625 512.5 17.375C512.5 18.625 511.984 19.6328 510.953 20.3984C509.938 21.1484 508.57 21.5234 506.852 21.5234C505.211 21.5234 503.898 21.0547 502.914 20.1172C501.945 19.1641 501.461 17.8203 501.461 16.0859C501.461 15.1328 501.727 14.1875 502.258 13.25C502.789 12.2969 503.609 11.4453 504.719 10.6953C505.844 9.94531 507.266 9.32812 508.984 8.84375C510.719 8.35938 512.805 8.11719 515.242 8.11719C518.148 8.11719 520.523 8.39062 522.367 8.9375C524.211 9.48438 525.641 10.1875 526.656 11.0469C527.688 11.9062 528.391 12.8828 528.766 13.9766C529.156 15.0703 529.352 16.1719 529.352 17.2812V26.4453C529.352 27.8672 529.398 28.8359 529.492 29.3516C529.586 29.8516 529.938 30.1016 530.547 30.1016C531.031 30.1016 531.367 29.875 531.555 29.4219C531.758 28.9531 531.859 28.1562 531.859 27.0312V24.1016H534.531V27.0781C534.531 28.4844 534.414 29.7344 534.18 30.8281C533.945 31.9062 533.5 32.8359 532.844 33.6172C532.188 34.3828 531.297 34.9609 530.172 35.3516C529.047 35.7578 527.609 35.9609 525.859 35.9609C524.281 35.9609 522.969 35.7891 521.922 35.4453C520.891 35.1172 520.07 34.7031 519.461 34.2031C518.852 33.7031 518.414 33.1875 518.148 32.6562C517.898 32.1094 517.773 31.625 517.773 31.2031H517.398C517.305 31.8438 517.031 32.4531 516.578 33.0312C516.141 33.6094 515.523 34.125 514.727 34.5781C513.945 35.0156 513 35.3672 511.891 35.6328C510.797 35.9141 509.547 36.0547 508.141 36.0547C506.797 36.0547 505.57 35.9219 504.461 35.6562C503.367 35.4062 502.43 35.0078 501.648 34.4609C500.883 33.8984 500.281 33.1797 499.844 32.3047C499.422 31.4141 499.211 30.3594 499.211 29.1406C499.211 27.6406 499.633 26.4609 500.477 25.6016C501.32 24.7266 502.383 24.0391 503.664 23.5391C504.945 23.0234 506.336 22.6094 507.836 22.2969C509.352 21.9688 510.75 21.5781 512.031 21.125C513.312 20.6719 514.375 20.0859 515.219 19.3672C516.062 18.6484 516.484 17.6328 516.484 16.3203C516.484 15.1484 516.117 14.2109 515.383 13.5078C514.648 12.7891 513.445 12.4297 511.773 12.4297ZM516.484 22.5781C516.141 23.0781 515.711 23.4844 515.195 23.7969C514.68 24.0938 514.18 24.3906 513.695 24.6875C513.227 24.9688 512.812 25.3125 512.453 25.7188C512.109 26.1094 511.938 26.6406 511.938 27.3125C511.938 27.8281 512.078 28.2969 512.359 28.7188C512.641 29.125 513.188 29.3281 514 29.3281C514.734 29.3281 515.328 29.0469 515.781 28.4844C516.25 27.9062 516.484 27.1016 516.484 26.0703V22.5781Z" fill="#FFA800"/>
<path d="M551.523 0.476562V9.17188H558.531V17.8672H551.523V25.0625C551.523 26.0938 551.664 26.9375 551.945 27.5938C552.242 28.25 552.844 28.5781 553.75 28.5781C554.25 28.5781 554.648 28.4844 554.945 28.2969C555.258 28.0938 555.5 27.8359 555.672 27.5234C555.859 27.1953 555.977 26.8281 556.023 26.4219C556.07 26 556.094 25.5469 556.094 25.0625V21.5703H558.789V25.3438C558.789 26.8594 558.625 28.2734 558.297 29.5859C557.984 30.8984 557.438 32.0312 556.656 32.9844C555.891 33.9375 554.844 34.6953 553.516 35.2578C552.188 35.8203 550.516 36.1016 548.5 36.1016C546.266 36.1016 544.484 35.8281 543.156 35.2812C541.828 34.7344 540.82 33.9844 540.133 33.0312C539.445 32.0781 538.992 30.9453 538.773 29.6328C538.57 28.3203 538.469 26.8906 538.469 25.3438V17.8672H534.789V10.1328C535.961 10.1328 537.047 9.88281 538.047 9.38281C539.062 8.86719 539.93 8.16406 540.648 7.27344C541.383 6.36719 541.945 5.33594 542.336 4.17969C542.742 3.02344 542.945 1.78906 542.945 0.476562H551.523Z" fill="#FFA800"/>
<path d="M576.227 27.3594C576.477 27.7812 576.961 28.1172 577.68 28.3672C578.398 28.6016 579.062 28.7188 579.672 28.7188C580.375 28.7188 580.945 28.5469 581.383 28.2031C581.82 27.8438 582.164 27.3672 582.414 26.7734C582.68 26.1797 582.859 25.4922 582.953 24.7109C583.047 23.9297 583.094 23.1172 583.094 22.2734C583.094 21.4453 583.047 20.6562 582.953 19.9062C582.859 19.1562 582.68 18.5 582.414 17.9375C582.164 17.375 581.812 16.9375 581.359 16.625C580.906 16.2969 580.328 16.1328 579.625 16.1328C578.922 16.1328 578.352 16.2969 577.914 16.625C577.492 16.9375 577.148 17.375 576.883 17.9375C576.633 18.5 576.461 19.1562 576.367 19.9062C576.273 20.6562 576.227 21.4453 576.227 22.2734V27.3594ZM585.016 8.35156C588.594 8.35156 591.391 9.51562 593.406 11.8438C595.422 14.1562 596.43 17.5547 596.43 22.0391C596.43 26.5234 595.375 29.9375 593.266 32.2812C591.156 34.6094 588.258 35.7734 584.57 35.7734C583.258 35.7734 582.102 35.6484 581.102 35.3984C580.117 35.1641 579.234 34.8594 578.453 34.4844C577.672 34.0938 576.961 33.6484 576.32 33.1484C575.68 32.6484 575.055 32.1484 574.445 31.6484H574.117L573.297 35H563.359V11.8203C563.359 10.9141 563.07 10.25 562.492 9.82812C561.914 9.39062 561.258 9.17188 560.523 9.17188H560.008V0.476562H576.227V9.40625V13.6953H576.602C576.836 13.0234 577.156 12.3672 577.562 11.7266C577.984 11.0859 578.531 10.5156 579.203 10.0156C579.875 9.51562 580.688 9.11719 581.641 8.82031C582.609 8.50781 583.734 8.35156 585.016 8.35156Z" fill="#FFA800"/>
<path d="M623.406 35.7734C622.406 35.7734 621.516 35.7188 620.734 35.6094C619.953 35.5156 619.242 35.375 618.602 35.1875C617.961 35 617.352 34.7812 616.773 34.5312C616.195 34.2656 615.617 33.9922 615.039 33.7109V36.0078C615.039 36.8359 615.18 37.4219 615.461 37.7656C615.758 38.125 616.328 38.3047 617.172 38.3047H618.555V47H598.82V38.3047H600.227C600.867 38.3047 601.352 38.0938 601.68 37.6719C602.023 37.2656 602.195 36.7734 602.195 36.1953V19.7422C602.195 19.0078 601.977 18.5156 601.539 18.2656C601.102 18 600.609 17.8672 600.062 17.8672H598.82V9.17188H614.031V13.9766H614.43C615.008 12.3516 616.031 11.0078 617.5 9.94531C618.969 8.88281 620.984 8.35156 623.547 8.35156C627.219 8.35156 630.086 9.51562 632.148 11.8438C634.227 14.1562 635.266 17.5547 635.266 22.0391C635.266 26.5234 634.203 29.9375 632.078 32.2812C629.969 34.6094 627.078 35.7734 623.406 35.7734ZM621.906 22.2734C621.906 21.4453 621.859 20.6562 621.766 19.9062C621.672 19.1562 621.492 18.5 621.227 17.9375C620.977 17.375 620.633 16.9375 620.195 16.625C619.773 16.2969 619.211 16.1328 618.508 16.1328C617.805 16.1328 617.227 16.2891 616.773 16.6016C616.32 16.8984 615.969 17.3125 615.719 17.8438C615.469 18.375 615.289 19.0078 615.18 19.7422C615.086 20.4766 615.039 21.2578 615.039 22.0859V27.8516C615.305 28.2578 615.797 28.5859 616.516 28.8359C617.234 29.0703 617.898 29.1875 618.508 29.1875C619.211 29.1875 619.773 28.9922 620.195 28.6016C620.633 28.1953 620.977 27.6641 621.227 27.0078C621.492 26.3516 621.672 25.6094 621.766 24.7812C621.859 23.9531 621.906 23.1172 621.906 22.2734Z" fill="#FFA800"/>
<path d="M638.172 30.0547C638.172 29.2578 638.328 28.4922 638.641 27.7578C638.969 27.0234 639.391 26.3906 639.906 25.8594C640.438 25.3281 641.062 24.9062 641.781 24.5938C642.516 24.2656 643.297 24.1016 644.125 24.1016C644.922 24.1016 645.688 24.2656 646.422 24.5938C647.156 24.9062 647.789 25.3281 648.32 25.8594C648.852 26.3906 649.273 27.0234 649.586 27.7578C649.914 28.4922 650.078 29.2578 650.078 30.0547C650.078 30.8828 649.914 31.6562 649.586 32.375C649.273 33.0938 648.852 33.7188 648.32 34.25C647.789 34.7812 647.156 35.2031 646.422 35.5156C645.688 35.8438 644.922 36.0078 644.125 36.0078C643.297 36.0078 642.516 35.8438 641.781 35.5156C641.062 35.2031 640.438 34.7812 639.906 34.25C639.391 33.7188 638.969 33.0938 638.641 32.375C638.328 31.6562 638.172 30.8828 638.172 30.0547Z" fill="#FFA800"/>
</svg>
