<svg width="360" height="40" viewBox="0 0 360 40" fill="none" xmlns="http://www.w3.org/2000/svg">
<rect width="360" height="40" fill="black" fill-opacity="0"/>
<path fill-rule="evenodd" clip-rule="evenodd" d="M8.19161 0.665V24.3775C8.19161 27.11 8.72606 29.15 9.79622 30.4988C10.8664 31.8463 12.6558 32.5213 15.1645 32.5213C17.6744 32.5213 19.4626 31.8463 20.534 30.4988C21.6029 29.15 22.1386 27.11 22.1386 24.3763V0.66375H30.3302V23.49C30.3302 26.3338 30.0617 28.8 29.526 30.8863C28.9916 32.9738 28.115 34.6913 26.8974 36.0388C25.6799 37.3875 24.1128 38.3838 22.1935 39.03C20.2742 39.6763 17.9316 40 15.1645 40C12.3973 40 10.0547 39.6763 8.13542 39.03C6.21738 38.3838 4.64899 37.3875 3.43149 36.0388C2.21398 34.6913 1.33738 32.9738 0.802927 30.8863C0.267226 28.7988 0 26.3338 0 23.49V0.665H8.19161V0.665ZM43.2432 39.335V0.665H51.6558V31.8563H66.377V39.335H43.2432ZM101.927 39.335L99.1597 30.1388H86.2641L83.497 39.335H74.9744L87.7039 0.61H98.1083L110.67 39.335H101.928H101.927ZM92.795 8.31H92.5177L88.2571 22.9913H97.1118L92.795 8.31V8.31ZM149.542 13.9613H149.376L146.554 19.6113L139.026 33.2963L131.665 19.6675L128.732 13.5738H128.566V39.3363H120.651V0.66375H129.562L139.028 18.78H139.137L148.49 0.66375H157.456V39.3338H149.542V13.9625V13.9613ZM170.592 39.3363V0.66375H188.855C190.663 0.66375 192.287 0.96875 193.725 1.5775C195.114 2.15238 196.368 3.01111 197.407 4.09875C198.421 5.17 199.205 6.47125 199.758 8.00375C200.312 9.5375 200.588 11.2088 200.588 13.0188C200.588 14.865 200.312 16.545 199.758 18.06C199.205 19.5738 198.422 20.8663 197.407 21.9375C196.368 23.0251 195.114 23.8839 193.725 24.4588C192.287 25.0675 190.663 25.3725 188.855 25.3725H179.004V39.335H170.592V39.3363ZM179.004 18.0613H187.859C189.114 18.0613 190.1 17.7375 190.821 17.0913C191.54 16.445 191.9 15.4938 191.9 14.2388V11.8013C191.9 10.545 191.54 9.59375 190.821 8.9475C190.1 8.30125 189.114 7.9775 187.859 7.9775H179.004V18.0613V18.0613ZM210.016 39.3363V32.6313H214.997V7.36875H210.015V0.665H228.39V7.36875H223.409V32.6313H228.391V39.335H210.016V39.3363ZM251.82 21.0525L248.111 13.2963H247.946V39.335H240.032V0.665H249.218L259.789 18.9475L263.498 26.7038H263.664V0.665H271.578V39.335H262.39L251.82 21.0525V21.0525ZM300.21 40C297.663 40 295.34 39.575 293.236 38.725C291.172 37.9033 289.332 36.6031 287.868 34.9313C286.392 33.25 285.248 31.1638 284.436 28.67C283.624 26.1775 283.219 23.2875 283.219 20C283.219 16.7125 283.624 13.8225 284.436 11.33C285.248 8.83625 286.392 6.75 287.868 5.06875C289.332 3.39625 291.173 2.09561 293.237 1.27375C295.339 0.42375 297.664 0 300.21 0C302.755 0 305.08 0.425 307.183 1.275C309.247 2.0965 311.088 3.3967 312.552 5.06875C314.027 6.75 315.171 8.83625 315.983 11.33C316.794 13.8225 317.2 16.7125 317.2 20C317.2 23.2875 316.794 26.1775 315.983 28.67C315.171 31.1638 314.027 33.25 312.551 34.9313C311.087 36.6036 309.247 37.9042 307.183 38.7263C305.08 39.5763 302.755 40 300.21 40V40ZM300.21 32.5213C302.755 32.5213 304.739 31.69 306.159 30.0275C307.58 28.365 308.29 25.9838 308.29 22.8813V17.1188C308.29 14.0163 307.579 11.6338 306.159 9.9725C304.739 8.31 302.755 7.47875 300.21 7.47875C297.663 7.47875 295.681 8.31 294.26 9.9725C292.84 11.635 292.13 14.0163 292.13 17.1188V22.8813C292.13 25.9838 292.84 28.3663 294.26 30.0275C295.681 31.69 297.664 32.5213 300.21 32.5213ZM338.306 39.335V24.21L325.078 0.665H334.486L342.789 16.0663H342.899L350.868 0.665H360L346.774 24.155V39.335H338.306V39.335Z" fill="#404040"/>
</svg>
